# xmcd
#
# Track frame offsets:
# 150
# 12903
# 24753
# 37719
# 51575
# 62567
# 74491
# 86231
# 98108
# 110183
# 122820
# 134407
# 147660
# 158767
# 170395
# 179970
# 193652
# 205212
#
# Disc length: 2885 seconds
#
# Revision: 1
# Processed by: cddbd v1.5.1PL2 Copyright (c) Steve Scherf et al.
# Submitted via: Axialis_AX_CDPlayer 2.6
#
DISCID=0e0b4312
DTITLE=Various Artist - 30 Years of No. 1 Country Hits Disc 1
DYEAR=1900
DGENRE=
TTITLE0=Chattanoogie Shoe Shine Boy
TTITLE1=Kentucky Waltz
TTITLE2=I'm Movin' On
TTITLE3=Slow Poke
TTITLE4=Why Don't You Love Me
TTITLE5=Shotgun Boogie
TTITLE6=A Dear John Letter
TTITLE7=Kaw-Liga
TTITLE8=Mexican Joe
TTITLE9=The Wild Side Of Life
TTITLE10=It Wasn't God Who Made Honky Tonk Angels
TTITLE11=
TTITLE12=
TTITLE13=
TTITLE14=
TTITLE15=
TTITLE16=
TTITLE17=
EXTD=
EXTT0=
EXTT1=
EXTT2=
EXTT3=
EXTT4=
EXTT5=
EXTT6=
EXTT7=
EXTT8=
EXTT9=
EXTT10=
EXTT11=
EXTT12=
EXTT13=
EXTT14=
EXTT15=
EXTT16=
EXTT17=
PLAYORDER=
